<svg xmlns="http://www.w3.org/2000/svg" viewBox="0 0 200 200" width="100%" height="100%">
  <circle cx="100" cy="100" r="95" fill="#ffffff" />

  <line x1="75" y1="75" x2="55" y2="50" stroke="#0078D7" stroke-width="8" stroke-linecap="round" />
  <circle cx="55" cy="50" r="7" fill="#0078D7" />

  <line x1="125" y1="75" x2="145" y2="50" stroke="#0078D7" stroke-width="8" stroke-linecap="round" />
  <circle cx="145" cy="50" r="7" fill="#0078D7" />

  <circle cx="100" cy="108" r="62" fill="#0078D7" />

  <path d="M 58 115
           A 42 34 0 0 0 142 115
           Q 140 95 130 92
           Q 126 105 118 100
           Q 115 95 110 100
           Q 100 100 95 83
           Q 78 78 74 92
           Q 70 105 66 100
           Q 60 95 58 115 Z" fill="#ffffff" />

  <path d="M 64 112
           Q 78 110 93 113
           Q 100 114 107 113
           Q 122 110 136 112
           Q 138 122 134 130
           Q 125 135 114 132
           L 107 118
           Q 100 114 93 118
           L 86 132
           Q 75 135 66 130
           Q 62 122 64 112 Z" fill="#0078D7" />
</svg>
