<svg xmlns="http://www.w3.org/2000/svg" viewBox="0 0 400 400" width="100%" height="100%">
  <defs>
    <linearGradient id="grad1" x1="0%" y1="0%" x2="100%" y2="100%">
      <stop offset="0%" stop-color="#0072FF"/>
      <stop offset="100%" stop-color="#00C6FF"/>
    </linearGradient>
  </defs>
  <rect width="400" height="400" fill="#0B132B" rx="40"/>
  <path d="M140,240 C110,240 90,215 90,185 C90,157 112,134 140,135 C150,105 180,85 215,85 C255,85 288,115 290,155 C315,155 335,175 335,200 C335,225 315,240 290,240 Z" fill="url(#grad1)"/>
  <circle cx="215" cy="160" r="15" fill="#FFFFFF"/>
  <line x1="215" y1="160" x2="160" y2="195" stroke="#FFFFFF" stroke-width="4"/>
  <line x1="215" y1="160" x2="270" y2="195" stroke="#FFFFFF" stroke-width="4"/>
  <circle cx="160" cy="195" r="10" fill="#FFFFFF"/>
  <circle cx="270" cy="195" r="10" fill="#FFFFFF"/>
</svg>