<svg xmlns="http://www.w3.org/2000/svg" viewBox="0 0 400 400" width="100%" height="100%">
  <rect width="400" height="400" fill="#1E1E24" rx="40"/>
  <g transform="translate(200,200)">
    <polygon points="0,-60 52,-30 0,0 -52,-30" fill="#4F46E5"/>
    <polygon points="-52,-30 0,0 0,60 -52,30" fill="#4338CA"/>
    <polygon points="0,0 52,-30 52,30 0,60" fill="#3730A3"/>
    <polygon points="0,-130 26,-115 0,-100 -26,-115" fill="#818CF8"/>
    <line x1="0" y1="-60" x2="0" y2="-100" stroke="#818CF8" stroke-width="4" stroke-dasharray="4,4"/>
    <polygon points="90,20 116,35 90,50 64,35" fill="#818CF8"/>
    <line x1="52" y1="30" x2="90" y2="35" stroke="#818CF8" stroke-width="4" stroke-dasharray="4,4"/>
    <polygon points="-90,20 -64,35 -90,50 -116,35" fill="#818CF8"/>
    <line x1="-52" y1="30" x2="-90" y2="35" stroke="#818CF8" stroke-width="4" stroke-dasharray="4,4"/>
  </g>
</svg>